<svg height="512" viewBox="0 0 60 60" width="512" xmlns="http://www.w3.org/2000/svg"><g id="Page-1" fill="none" fill-rule="evenodd"><g id="007---Hug-Unicorn" transform="translate(0 -1)"><path id="Path" d="m12 57h-.24c-10.76-.1-10.76-7.03-10.76-11 .10178177-1.9522967.87956737-3.808376 2.2-5.25.25154052-.3044008.65865725-.4322715 1.03907199-.3263606.38041473.1059109.66288011.4257675.72092801.8163606.02576697.7731618.36353141 1.5029359.93628332 2.0229343.57275192.5199985 1.33166821.7858951 2.10371668.7370657 4 0 6-4 4-9-1.93-4.83-3.87-18.07 6.84-18.95-.0013541.3234838.0527632.6448052.16.95.4246951 1.3614254 1.2213051 2.5771215 2.3 3.51.3610566.302176.4574694.8177744.23 1.23-.92 1.7-2.64 6.27.47 13.26 4 9 1 22-10 22z" fill="#ffdc00"/><path id="Path" d="m22 35c-3.11-6.99-1.39-11.56-.47-13.26.2274694-.4122256.1310566-.927824-.23-1.23-1.0786949-.9328785-1.8753049-2.1485746-2.3-3.51-.1072368-.3051948-.1613541-.6265162-.16-.95-.9987627.0737032-1.9814374.2926742-2.917.65.0197735.1014207.0454844.2015931.077.3.4246951 1.3614254 1.2213051 2.5771215 2.3 3.51.3610566.302176.4574694.8177744.23 1.23-.92 1.7-2.64 6.27.47 13.26 3.842 8.644 1.222 20.97-8.735 21.933.476.036.969.062 1.495.067h.24c11 0 14-13 10-22z" fill="#fec108"/><path id="Path" d="m36.86 7.81-5.37 3.84c-.3199027.2244687-.4768477.6168311-.4 1 .03.13.07.28.11.45-.3967982-.0644291-.7980108-.0978635-1.2-.1-1.5890812.1668772-3.0824848.8399606-4.26 1.92-.25-.28-.49-.59-.74-.92-.5926958-.9448777-1.5898898-1.5616606-2.7-1.67.79-1.56 3.36-5.33 9.7-5.33 1.6545039-.01120896 3.2985641.26280107 4.86.81z" fill="#e91e63"/><path id="Path" d="m44.98 17.82c.0323642.5595136-.0079722 1.1208619-.12 1.67v.01c-.62 2.89-3.03 3.24-4.86 2.24.7350701-2.5208528.3060051-5.2382644-1.17-7.41l2.1-4.2c2.3697904 1.8810317 3.8395393 4.6717401 4.05 7.69z" fill="#e91e63"/><path id="Path" d="m42.37 11.53c-.4372468-.5087159-.9191715-.9772538-1.44-1.4l-1.03 2.064c1.6329943 2.0585041 2.3429957 4.7002016 1.962 7.3v.01c-.1449919.9850878-.7163405 1.856376-1.562 2.382.905858.5059848 2.0058014.5210155 2.9251471.0399719s1.5340996-1.3932821 1.6348529-2.4259719v-.01c.4171959-2.8934148-.4983175-5.8201163-2.49-7.96z" fill="#ad1457"/><path id="Path" d="m45 2-4.07 8.13-3.61 7.22c-.200979.4193399-.668301.6404834-1.12.53-.07-.02-.13-.03-.21-.06.0046156-1.238166-.523614-2.4184859-1.45-3.24-.4060548-.3557856-.8605963-.6520793-1.35-.88-.6323307-.2912334-1.3020717-.4931653-1.99-.6-.04-.17-.08-.32-.11-.45-.0768477-.3831689.0800973-.7755313.4-1l5.37-3.84z" fill="#ffeb3a"/><path id="Path" d="m40.332 5.332-2.4 4.8-2.661 5.322c.4612698.7044093.7114415 1.5260552.721 2.368.08.03.14.04.21.06.451699.1104834.919021-.1106601 1.12-.53l3.61-7.22 4.068-8.132z" fill="#fdd834"/><path id="Path" d="m36 18c0 .22-.01.43-.03.64 0 .06-.01.11-.01.16-.02.18-.05.36-.08.53v.01c-.05.21-.09.41-.15.61-.1134124.3838003-.2641314.7555739-.45 1.11-.09.17-.18.33-.28.49-.2024234.3050295-.4298746.5926884-.68.86-.1274581.145911-.2680487.2798068-.42.4-.7975315.7239576-1.8238242 1.1450915-2.9 1.19-1.0896371.0518834-2.1594204-.3047111-3-1 0 0 2.32-.77 2.19-4.36-1.7085566-.9425838-3.2194423-2.2056164-4.45-3.72 1.1775152-1.0800394 2.6709188-1.7531228 4.26-1.92 1.1005327.0081514 2.187171.2465987 3.19.7 1.6804895.6809006 2.7855134 2.3068643 2.8 4.12.0083116.0596196.0116565.1198266.01.18z" fill="#02a9f4"/><path id="Path" d="m33.19 13.7c-1.0021002-.4555944-2.0892109-.6941453-3.19-.7-.4292396.0112658-.8544754.0857326-1.262.221 2.532.579 4.262 2.161 4.262 4.779.1153496 2.4944136-1.3521039 4.7913149-3.664 5.735 3.564 1.192 6.664-1.935 6.664-5.735.0520074-1.8791635-1.0680666-3.5931559-2.81-4.3z" fill="#0377bc"/><path id="Path" d="m40 21.74c-.400771 1.326515-1.614399 2.2407815-3 2.26-1.1396389-.0273346-2.2348018-.4477358-3.1-1.19.1519513-.1201932.2925419-.254089.42-.4.2583596-.2601176.4864756-.5486173.68-.86.1103061-.1530317.2041589-.3172741.28-.49.1942607-.3504767.3453608-.7231902.45-1.11.0617099-.2002738.1117935-.4039467.15-.61v-.01c.03-.17.06-.35.08-.53 0-.05.01-.1.01-.16.02-.2.03-.42.03-.64.0016565-.0601734-.0016884-.1203804-.01-.18.08.03.14.04.21.06.451699.1104834.919021-.1106601 1.12-.53l1.51-3.02c1.4760051 2.1717356 1.9050701 4.8891472 1.17 7.41z" fill="#9d27b0"/><path id="Path" d="m38.83 14.33-1.51 3.02c-.0432485.0847513-.0988564.1626023-.165.231.3502251 1.3723007.2963991 2.8165747-.155 4.159-.2849852.8253944-.8661839 1.5156347-1.631 1.937.5178996.2113406 1.0716425.3210027 1.631.323 1.385601-.0192185 2.599229-.933485 3-2.26.7350701-2.5208528.3060051-5.2382644-1.17-7.41z" fill="#6a1b9a"/><path id="Path" d="m46.63 11.09c.1428704 1.601613-.7789129 3.1081399-2.27 3.71-.4765143-1.1932589-1.1491133-2.2984845-1.99-3.27-.4372468-.5087159-.9191715-.9772538-1.44-1.4l1.4-2.8c.4125457-.16742801.8548668-.24908729 1.3-.24 3 0 3 3 3 4z" fill="#cfd8dc"/><path id="Path" d="m47.65 44.77c-2.9131555.6983734-5.943577.7529756-8.88.16-.7865153 2.3960543-.7935171 4.979718-.02 7.38.2629366.9603948.6854945 1.8697395 1.25 2.69.8 1.06 1.38 1.91 1.81 2.59.23.36.41.66.56.93.1697574.3102528.1630156.6870969-.0177306.9910791-.1807461.3039822-.5086122.4898876-.8622694.4889209h-30.13c-.3686509.0017854-.7083844-.1994034-.884036-.5235224s-.1587287-.7185927.044036-1.0264776c.3485068-.5352094.7653588-1.0226573 1.24-1.45h.24c11 0 14-13 10-22-3.11-6.99-1.39-11.56-.47-13.26.2274694-.4122256.1310566-.927824-.23-1.23-1.0786949-.9328785-1.8753049-2.1485746-2.3-3.51-.1072368-.3051948-.1613541-.6265162-.16-.95-.01-1.9 1.59-3.81 3.46-3.72 1.1101102.1083394 2.1073042.7251223 2.7 1.67.25.33.49.64.74.92 1.2305577 1.5143836 2.7414434 2.7774162 4.45 3.72.13 3.59-2.19 4.36-2.19 4.36.8405796.6952889 1.9103629 1.0518834 3 1 1.0761758-.0449085 2.1024685-.4660424 2.9-1.19.8651982.7422642 1.9603611 1.1626654 3.1 1.19 1.385601-.0192185 2.599229-.933485 3-2.26 1.83 1 4.24.65 4.86-2.24v-.01c.1120278-.5491381.1523642-1.1104864.12-1.67h.02c.93.4 1.94.81 3.04 1.24 6.73 2.59 9.56 6.06 10.65 10.94s-.3 12.36-11.04 14.77z" fill="#f5f5f5"/><path id="Path" d="m58.69 30c-1.09-4.88-3.92-8.35-10.65-10.94-1.1-.43-2.11-.84-3.04-1.24h-.02c.0180198.40081-.000053.8024285-.054 1.2l.114.045c6.73 2.585 9.56 6.055 10.65 10.935s-.3 12.36-11.04 14.77c-1.1274801.2506658-2.2719212.4177863-3.424.5 2.1542809.1530822 4.3193494-.0154318 6.424-.5 10.74-2.41 12.13-9.9 11.04-14.77z" fill="#cfd8dc"/><path id="Path" d="m40 55c-1.7744499-2.9034656-2.2668154-6.4122941-1.36-9.692-.670044-.035698-1.3376781-.1074687-2-.215-.5190285-.0922108-1.0223671.2278587-1.159.737-.6981626 3.1380983-.1537506 6.4246407 1.519 9.17.8672235 1.1194504 1.6589735 2.2953829 2.37 3.52.1697574.3102528.1630156.6870969-.0177306.9910791-.1807461.3039822-.5086122.4898876-.8622694.4889209h3c.3536572.0009667.6815233-.1849387.8622694-.4889209.1807462-.3039822.187488-.6808263.0177306-.9910791-.7110265-1.2246171-1.5027765-2.4005496-2.37-3.52z" fill="#cfd8dc"/><path id="Path" d="m45 35h6c.5522847 0 1 .4477153 1 1v1c0 2.209139-1.790861 4-4 4s-4-1.790861-4-4v-1c0-.5522847.4477153-1 1-1z" fill="#e91e63"/><path id="Path" d="m16.12 41.88-4.24 4.24-2-2c-1.10143544-1.182039-1.0689355-3.0240389.0735128-4.1664872s2.9844482-1.1749482 4.1664872-.0735128z" fill="#ef314c"/><path id="Path" d="m28.12 53.88-5.74 2.74-10.5-10.5 4.24-4.24z" fill="#f5f5f5"/><path id="Path" d="m55.23 52.83-2.69.95-2.11-5.62 2.79-.99c1.5629658-.5550462 3.2799538.2620342 3.835 1.825s-.2620342 3.2799538-1.825 3.835z" fill="#ef314c"/><path id="Path" d="m52.54 53.78-10.73 3.81c-.43-.68-1.01-1.53-1.81-2.59-.5645055-.8202605-.9870634-1.7296052-1.25-2.69l11.68-4.15z" fill="#cfd8dc"/><path id="Path" d="m13 11-4.121-3.879c-1.14293341-1.14950439-1.16601962-2.99902772-.05213464-4.17670228 1.11388499-1.17767456 2.96182844-1.25751383 4.17313464-.18029772 1.2113062-1.07721611 3.0592497-.99737684 4.1731346.18029772 1.113885 1.17767456 1.0907988 3.02719789-.0521346 4.17670228z" fill="#e91e63"/><path id="Path" d="m5 19-3.3-3.017c-.44935386-.4312777-.70337473-1.0271683-.70337473-1.65s.25402087-1.2187223.70337473-1.65c.91145493-.8782891 2.34202887-.9173048 3.3-.09.95797113-.8273048 2.38854507-.7882891 3.3.09.44935386.4312777.70337473 1.0271683.70337473 1.65s-.25402087 1.2187223-.70337473 1.65z" fill="#e91e63"/><g fill="#000"><path id="Shape" d="m9.693 57.89c-.006.009-.015.019-.021.029-.39085853.6233445-.41306028 1.4095925-.058 2.054.34794246.6382512 1.0190941 1.0330236 1.746 1.027h30.13c.69.0045548 1.3329117-.349363 1.6981238-.9348036.3652122-.5854407.4003753-1.3184869.0928762-1.9361964l12.287-4.358c2.0829419-.74089 3.17089-3.0300581 2.43-5.113s-3.0300581-3.17089-5.113-2.43l-13.426 4.772c-.3695091-1.6283-.3695091-3.3187 0-4.947 1.0720146.1841189 2.1573109.2801066 3.245.287 1.7377889-.0071834 3.4695225-.2053736 5.164-.591 10.8-2.424 13.107-10.115 11.8-15.964-1.254-5.613-4.624-9.1-11.262-11.653-.879-.344-1.686-.673-2.455-1-.0647086-.6236783-.1886-1.2397868-.37-1.84 1.372207-.944047 2.1502825-2.5373757 2.051-4.2 0-3.955-2.069-4.849-3.568-4.979l1.836-3.665c.2107256-.41247351.1106188-.91567408-.2419293-1.21608976-.352548-.30041567-.8652578-.31941268-1.2390707-.04591024l-7.735 5.525c-1.5159699-.47434588-3.0955545-.7141163-4.684-.711-6.287 0-9.181 3.435-10.315 5.375-.8715805.1251411-1.680852.5239989-2.311 1.139-.738742.7145533-1.2415201 1.6377669-1.441 2.646-2.7380622.2837308-5.1917983 1.8156091-6.649 4.151-2.956 4.774-1.747 12.22-.213 16.059.3446973.8505389.5682142 1.74528.664 2.658-1.1904294.0578681-2.29028234.6528244-2.9901758 1.6175109s-.92420032 2.1948637-.6098242 3.3444891c-.048 0-.091.01-.139.01-.828 0-1.809-.216-2.052-1.911-.11785403-.7778299-.68076251-1.4143181-1.43835385-1.626366s-1.5691253.0397373-2.07364615.643366c-1.46942226 1.6233281-2.32911383 3.7068076-2.432 5.894 0 3.619 0 10.905 9.693 11.89zm43.859-9.777c.5013429-.1776742 1.0528096-.1483262 1.5324632.0815547s.8479799.6413571 1.0235368 1.1434453c.1806593.4968673.1532586 1.0456016-.076 1.522-.226272.4790809-.6333965.8488017-1.132 1.028l-1.763.625-1.409-3.751zm-3.713 1.319 1.408 3.75-9.027 3.2c-.41-.61-.8833333-1.2713333-1.42-1.984-.3218568-.4580891-.5824009-.9563167-.775-1.482zm-6.209-41.342c1.421 0 2 .869 2 3 .0515405.8425989-.2444564 1.6695108-.819 2.288-.4596853-.8970021-1.0243086-1.7362164-1.682-2.5-.3012798-.3454405-.621788-.6736275-.96-.983l.868-1.736c.1943966-.04549305.3933515-.06864295.593-.069zm-4.563 13.289c-.2616668.9333501-1.0981805 1.5893678-2.067 1.621-.5341822-.0064647-1.0594699-.1376154-1.534-.383.8542581-1.0898542 1.3733136-2.4045168 1.494-3.784.5480645-.1465829 1.0057881-.5233386 1.255-1.033l.6-1.21c.64415 1.5171228.7333697 3.2126517.252 4.789zm-7.877-2.761c-.016505-.6096667-.0867775-1.2166876-.21-1.814-.0858698-.4514231-.4708015-.7846001-.9298727-.8048497-.4590712-.0202497-.8718438.2777406-.9971273.7198497-.6551406-.502214-1.2694014-1.0556171-1.837-1.655.8157124-.5980562 1.7773371-.9655737 2.784-1.064.9507272.0089676 1.8894719.2131906 2.758.6.4039158.1871883.7793052.4306022 1.115.723.7588723.677628 1.1727163 1.6606453 1.127 2.677.0613545 1.5463779-.5827754 3.0369629-1.751 4.052-.6188119.564494-1.412819.8991844-2.249.948-.3815186.0022334-.7617075-.0451641-1.131-.141.9911442-1.1793714 1.4670983-2.7073967 1.321-4.241zm8.768-4.306 1.27-2.538c.13.135.263.267.384.408 1.4452549 1.6045747 2.2892188 3.6607647 2.388 5.818.0037795.4332373-.0360884.8657536-.119 1.291l-.009.045c-.0924552.7379863-.5331255 1.3869059-1.185 1.745-.4695826.1891507-.9897899.2117377-1.474.064.3975771-2.3543759-.0467489-4.7735626-1.255-6.833zm-2.022-.429-1.171 2.43c-.27383-.9562697-.8133953-1.8152049-1.556-2.477-.4812186-.4217233-1.0199403-.7729025-1.6-1.043-.429454-.1972775-.8751007-.3572018-1.332-.478l10.023-7.161zm-5.936-5.883c.8560023.00045578 1.7101886.0787785 2.552.234l-3.645 2.6c-.3862647.2839066-.6566087.6981263-.761 1.166h-.146c-1.48334.1057648-2.9041199.6396862-4.09 1.537-.036-.048-.073-.088-.109-.136-.5036302-.7119672-1.1733169-1.2903486-1.951-1.685 1.15-1.591 3.55-3.716 8.15-3.716zm-11.242 5.958c.3918496-.4128867.939919-.6409766 1.509-.628.8026753.1107248 1.5127293.5772373 1.933 1.27.267.353.525.683.774.961 1.1856851 1.4392884 2.6027245 2.6711293 4.193 3.645-.115 2.264-1.442 2.822-1.487 2.839-.3290561.1093007-.578009.3812566-.6578789.7186663-.0798699.3374098.0207433.6921133.2658789.9373337 1.0255261.89204 2.3540304 1.3569449 3.712 1.299 1.0462503-.0320907 2.0603852-.3688613 2.918-.969.9102187.6179591 1.9819214.9549091 3.082.969 1.4292831.0087957 2.7534739-.7496843 3.469-1.987.4566974.1475211.9330931.225066 1.413.23.5642903.0045623 1.1229485-.1124217 1.638-.343 1.2515444-.6153868 2.1188827-1.8086317 2.318-3.189.0053333-.022.0093333-.045.012-.069.023-.117.034-.241.051-.361.567.233 1.155.469 1.78.713 6.021 2.318 8.928 5.28 10.034 10.225 1.16 5.187-.932 11.477-10.282 13.576-2.7734456.6629347-5.6575881.7171787-8.454.159-2.5266956-.481784-4.8662649-1.6664726-6.75-3.418-.3722399-.4081384-1.0048615-.4372399-1.413-.065-.4081384.3722399-.4372399 1.0048616-.065 1.413 1.8838379 1.8204252 4.210716 3.1169272 6.75 3.761-.7680565 3.4125587-.1574405 6.990359 1.699 9.955.8379057 1.0812828 1.6029292 2.2171255 2.29 3.4l-30.12-.023c.2364413-.357085.5110596-.6873645.819-.985 2.7314497.0189612 5.3839096-.9157657 7.5-2.643l1.979 1.979c.3923789.3789722 1.0160848.3735524 1.4018186-.0121814s.3911536-1.0094397.0121814-1.4018186l-6.682-6.683-.007-.009-.008-.006-3.1-3.095 2.828-2.828 11.301 11.293c.2510745.2599566.6228779.3642126.9725073.2726972.3496295-.0915155.6226744-.3645604.7141899-.7141899.0915154-.3496294-.0127406-.7214328-.2726972-.9725073l-4.837-4.837c1.204295-4.5707518.8246631-9.414671-1.077-13.742-2.934-6.593-1.33-10.851-.514-12.364.4565541-.8348809.2616632-1.8758328-.466-2.489-.4879667-.4121057-.9048598-.9016342-1.234-1.449-.3192532-.5086745-.5745154-1.0548014-.76-1.626-.0687492-.1997211-.1025772-.4097932-.1-.621.0171914-.7895739.3474188-1.5399601.918-2.086zm-1.81 23.726c-.191-.576-.4-1.169-.616-1.778-1.808-5.106-3.832-10.869 1.362-15.606.2873209.3515799.6074289.6750362.956.966-.965 1.786-2.858 6.739.436 14.142 1.5368742 3.550238 1.974702 7.4795429 1.257 11.281l-2.869-2.87c.2889629-2.0585158.1091541-4.1557158-.526-6.135zm-5.963-17.321c1.1118256-1.7657322 2.956637-2.9400701 5.027-3.2.015.051.022.106.04.154.1473793.4357169.3261821.8601648.535 1.27-6.5 5.664-3.989 12.761-2.141 17.987.211.6.417 1.179.606 1.745.3768402 1.1705109.5612368 2.3944179.546 3.624l-2.77-2.77c-.3129484-.305875-.6745373-.5576355-1.07-.745-.0567794-1.3047815-.3371871-2.5901245-.829-3.8-1.429-3.576-2.357-10.367.056-14.265zm-2.4 20.223c.791167-.755814 2.036833-.755814 2.828 0l1.293 1.293-2.828 2.828-1.293-1.293c-.78076388-.7809997-.78076388-2.0470003 0-2.828zm-6.616.8c.12041719 2.1085789 1.92183339 3.7236416 4.031 3.614.40819647-.0030959.81511972-.0459652 1.215-.128l5.02 5.019c-.9242633.7204957-2.06309 1.1109003-3.235 1.109-4.8 0-4.994-3.589-5-4 0-.5522847-.44771525-1-1-1s-1 .4477153-1 1c0 2.075 1.463 6 7 6 1.702818.0006686 3.3522967-.5939644 4.663-1.681l2.613 2.613c-1.7858562 1.4019341-4.0065533 2.1336743-6.276 2.068h-.23c-9.77-.091-9.77-6.054-9.77-10 .10976167-1.7191995.80500185-3.3489555 1.97-4.618z" fill-rule="nonzero"/><path id="Path" d="m31 31h7c.4304304 0 .8125693-.2754301.9486833-.6837722.136114-.4083422-.004339-.8579696-.3486833-1.1162278l-4-3c-.2858125-.2143594-.6642734-.2599564-.9928203-.1196152-.3285469.1403411-.5572656.4452994-.6.8-.0427344.3547005.1070078.7052558.3928203.9196152l1.6 1.2h-4c-.5522847 0-1 .4477153-1 1s.4477153 1 1 1z"/><path id="Path" d="m49 31c.5600167 0 1.0139999-.4539833 1.0139999-1.014s-.4539832-1.014-1.0139999-1.014c-.007732-.5522847-.4617153-.9937319-1.014-.9859999s-.9937319.4617152-.986 1.0139999c-.0112942.5338153.1957906 1.0491116.5733395 1.4266605s.8928452.5846337 1.4266605.5733395z"/><path id="Path" d="m54 29c.5600167 0 1.014-.4539833 1.014-1.014s-.4539833-1.014-1.014-1.014c-.007732-.5522847-.4617153-.993732-1.014-.986s-.993732.4617153-.986 1.014c-.0112942.5338153.1957906 1.0491116.5733395 1.4266605s.8928452.5846337 1.4266605.5733395z"/><path id="Shape" d="m48 42c2.7600532-.0033061 4.9966939-2.2399468 5-5v-1c0-1.1045695-.8954305-2-2-2h-6c-1.1045695 0-2 .8954305-2 2v1c.0033061 2.7600532 2.2399468 4.9966939 5 5zm-3-6h6v1c0 1.6568542-1.3431458 3-3 3s-3-1.3431458-3-3z" fill-rule="nonzero"/><path id="Shape" d="m12.314 11.728c.3852236.3631979.9867764.3631979 1.372 0l4.142-3.9c1.4197771-1.41924333 1.5676673-3.67100838.3457101-5.26375417s-3.4352026-2.03304367-5.1737101-1.02924583c-1.7434366-1.00691168-3.96355345-.56109653-5.18312142 1.04080739-1.21956796 1.60190391-1.05846166 3.86060153.37612142 5.27319261zm-2.728-8.142c.7500035-.75057098 1.9556149-.78480384 2.747-.078.3797036.33992305.9542964.33992305 1.334 0 .588055-.5257359 1.430195-.65672386 2.1501527-.33443857.7199577.32228528 1.1832378 1.03763776 1.1828473 1.82643857.0031291.52055515-.1995942 1.02125296-.564 1.393l-3.436 3.234-3.414-3.213c-.78076388-.7809997-.78076388-2.0470003 0-2.828z" fill-rule="nonzero"/><path id="Shape" d="m4.325 19.738c.38210909.3495764.96789091.3495764 1.35 0l3.319-3.038c.64274714-.6197093 1.00583984-1.4741599 1.00583984-2.367s-.3630927-1.7472907-1.00583984-2.367c-1.07041586-1.028179-2.67735619-1.2591214-3.994-.574-1.31658952-.6854404-2.92372606-.4544698-3.994.574-.64654481.6233752-1.0099516 1.4840955-1.00579631 2.3822044.00415528.8981089.37551095 1.7554297 1.02779631 2.3727956zm-1.925-6.338c.53738599-.5163092 1.37928053-.5392621 1.944-.053.37637629.3275653.93662371.3275653 1.313 0 .5642236-.4866009 1.40614209-.4636356 1.943.053.25167062.2392832.39596314.5701152.40010595.9173577.00414281.3472426-.13221573.6814229-.37810595.9266423l-2.622 2.401-2.6-2.379c-.25539887-.2429438-.39997534-.5800085-.39997534-.9325s.14457647-.6895562.39997534-.9325z" fill-rule="nonzero"/></g></g></g></svg>